<svg width="24px" height="24px" class="" viewBox="0 0 24 24" xmlns="http://www.w3.org/2000/svg" aria-hidden="true" focusable="false" style="display: inline-block; vertical-align: middle;"><path d="m11.9919822 6c1.6877505 0 2.589755 1.20493489 2.589755 2.4304318 0 1.18848527-.2325167 1.53803976-.2325167 1.53803976s.1844098-.08224812.2325167.26319394c.044098.3454421-.1242762.5921865-.2124722 1.0610007-.1042316.5428376-.3688196.4276902-.3688196.4276902s-.0761692.830706-.1924276 1.1309116c-.1162583.304318-.3968819.5757368-.3968819.5757368s0 1.0281014.1162583 1.1720356c.1162584.1439342.4730512.242632.6975501.3331049.3247216.1274846 1.0583519.1357094 1.5073497.3002056.4489978.1644963 1.8360802.9129541 1.8320799 2.7676491h-11.15680152c0-1.8505826 1.38708241-2.5990404 1.83608018-2.7635367.45300668-.1644962 1.18663697-.1809458 1.50734967-.3084304.22449888-.0863605.58129177-.1850583.69755007-.3289925.0983725-.1217904.1135067-.8766237.1158351-1.1059975l.0004233-.0660381s-.2806236-.2714188-.396882-.5757368c-.1162583-.304318-.19242759-1.1309116-.19242759-1.1309116s-.26458797.1192598-.3688196-.4276902c-.0922049-.4688142-.26057906-.7155586-.21247216-1.0610007.044098-.34544206.23251671-.26319394.23251671-.26319394s-.2285078-.34955449-.2285078-1.53803976c0-1.22138451.91002224-2.4304318 2.59376394-2.4304318zm-5.58841873 2.02330363c1.16258352 0 1.74387528.62919808 1.87216036 1.67786155.12828508 1.05277592-.20846325 2.17957502.4129176 3.14599042-.38084633.3495545-1.33897551.3824537-1.33897551.3824537s-.05211581.5551748.02405346.6456477c.08017817.0986978.76971046.2755312.76971046.2755312.50111359.0945853.34877506.3413297.34877506.3413297-.27260579.0370116-.62939866.0246744-.99020045.2138451-.58930957.3084304-1.19465478.8965044-1.28285078 1.2254969h-3.21915367c0-.8224811.59331849-1.41878.90601336-1.5298149.31269488-.111035.68552339-.2179575 1.03830735-.2960933.16436526-.0328992.40089087-.1274845.48106905-.2261823.08017817-.0986977.04008908-.6908841.04008908-.6908841s-.96213808.0123372-1.34298441-.3413297c.63741648-.8430432.28062361-2.097327.40890869-3.14599042.12828508-1.05277587.73363029-1.67786155 1.85612472-1.67786155zm11.20890873 0c1.1224944 0 1.7278396.62508568 1.8561247 1.67786155.1282851 1.04866342-.2285078 2.30294722.4089087 3.14599042-.3808464.3536669-1.3429844.3413297-1.3429844.3413297s-.0400891.5921864.040089.6908841c.0801782.0986978.3167038.1932831.4810691.2261823.352784.0781358.7256125.1850583 1.0383073.2960933.3126949.1110349.9060134.7073338.9060134 1.5298149h-3.2191537c-.088196-.3289925-.6935412-.9170665-1.2828508-1.2254969-.3608017-.1891707-.7175946-.1768335-.9902004-.2138451 0 0-.1523385-.2467444.3487751-.3413297 0 0 .6895322-.1768334.7697104-.2755312.0761693-.0904729.0240535-.6456477.0240535-.6456477s-.9581292-.0328992-1.3389755-.3824537c.6213808-.9664154.2846325-2.0932145.4129176-3.14599042.128285-1.04866347.7095768-1.67786155 1.8721603-1.67786155z" style="fill: #D0021B;"></path></svg>